<svg xmlns="http://www.w3.org/2000/svg" version="1.1" xmlns:xlink="http://www.w3.org/1999/xlink" xmlns:svgjs="http://svgjs.dev/svgjs" width="1500" height="1500" viewBox="0 0 1500 1500"><rect width="1500" height="1500" fill="#ffffff"></rect><g transform="matrix(0.6666666666666666,0,0,0.6666666666666666,250,250)"><svg viewBox="0 0 280 280" data-background-color="#ffffff" preserveAspectRatio="xMidYMid meet" height="1500" width="1500" xmlns="http://www.w3.org/2000/svg" xmlns:xlink="http://www.w3.org/1999/xlink"><g id="tight-bounds" transform="matrix(1,0,0,1,0,0)"><svg viewBox="0 0 280 280" height="280" width="280"><g><svg viewBox="0 0 280 280" height="280" width="280"><g><svg viewBox="0 0 280 280" height="280" width="280"><g id="textblocktransform"><svg viewBox="0 0 280 280" height="280" width="280" id="textblock"><g><svg viewBox="0 0 280 280" height="280" width="280"><g transform="matrix(1,0,0,1,88.52262632961933,98.08720064266163)"><svg viewBox="0 0 102.95474734076133 83.82559871467673" height="83.82559871467673" width="102.95474734076133"><g id="icon-0"><svg xmlns="http://www.w3.org/2000/svg" xmlns:xlink="http://www.w3.org/1999/xlink" version="1.1" x="0" y="0" viewBox="2.465595840408956 11.3 95.06281573124888 77.4" enable-background="new 0 0 100 100" xml:space="preserve" height="83.82559871467673" width="102.95474734076133" class="icon-jxe-0" data-fill-palette-color="accent" id="jxe-0"><g fill="#2a2c35" data-fill-palette-color="accent"><path fill="#2a2c35" d="M67.6 81.7H90.4C90.3 70.7 89.3 59.6 78.7 58.9 74 62.5 69.8 64.7 65.7 65.5 64.9 63 63.6 60.7 61.9 58.8 66.1 59 70.2 56.6 76.3 51.8 99.2 51.8 97.5 71.7 97.5 88.7H67.6z" data-fill-palette-color="accent"></path><path fill="#2a2c35" d="M62.3 11.3C73.9 11.3 83.4 20.8 83.4 32.4S73.9 53.5 62.3 53.5C58.3 53.5 54.5 52.4 51.4 50.4 52.7 48.5 53.7 46.3 54.4 43.9 56.7 45.5 59.4 46.4 62.4 46.4 70.2 46.4 76.5 40.1 76.5 32.3S70.2 18.2 62.4 18.2C57.3 18.2 52.8 20.9 50.3 25 49.8 24.4 49.4 23.9 48.8 23.4 47.6 22.2 46.3 21.2 44.9 20.3 48.7 14.9 55.1 11.3 62.3 11.3" data-fill-palette-color="accent"></path><path fill="#2a2c35" d="M8.8 82.4H58.9C58.8 72.6 57.9 62.7 48.4 62.1 37.6 70.4 30 70.4 19.2 62.1 9.7 62.7 8.9 72.6 8.8 82.4M2.5 88.7C2.5 73.6 0.8 55.8 21.3 55.8 31.9 64.2 35.7 64.2 46.3 55.8 66.8 55.8 65.2 73.5 65.2 88.7z" data-fill-palette-color="accent"></path><path fill="#2a2c35" d="M33.8 19.7C44.2 19.7 52.6 28.1 52.6 38.5S44.2 57.3 33.8 57.3 15 48.9 15 38.5C15 28.2 23.4 19.7 33.8 19.7M33.8 26C26.9 26 21.3 31.6 21.3 38.5S26.9 51 33.8 51 46.3 45.4 46.3 38.5 40.7 26 33.8 26" data-fill-palette-color="accent"></path></g></svg></g></svg></g><g id="text-0"><path d="M12.553 94.116l-1.855 5.171 10.362 3.718 1.855-5.172c0.255-0.712 0.358-1.43 0.307-2.153-0.045-0.721-0.217-1.4-0.517-2.036-0.298-0.643-0.714-1.212-1.249-1.706-0.541-0.497-1.164-0.872-1.87-1.126v0c-0.712-0.255-1.432-0.362-2.159-0.319-0.727 0.042-1.41 0.217-2.049 0.523-0.636 0.3-1.201 0.715-1.693 1.243-0.499 0.526-0.876 1.145-1.132 1.857zM26.213 104.853l5.181 1.859-1.859 5.181-25.867-9.28 3.714-10.352c0.343-0.956 0.793-1.827 1.35-2.614 0.56-0.793 1.204-1.489 1.933-2.088 0.723-0.601 1.513-1.103 2.37-1.508 0.859-0.411 1.754-0.703 2.684-0.877 0.936-0.172 1.885-0.223 2.846-0.153 0.97 0.066 1.93 0.269 2.88 0.61v0c0.887 0.318 1.712 0.741 2.474 1.269 0.765 0.521 1.45 1.126 2.055 1.816 0.614 0.686 1.132 1.442 1.555 2.27 0.42 0.834 0.731 1.707 0.932 2.619v0l7.793-0.441-1.973 5.5-6.029 0.386z" fill="#2a2c35" data-fill-palette-color="primary"></path><path d="M47.778 52.962v0c1.035 0.788 1.93 1.682 2.686 2.683 0.756 1.001 1.366 2.066 1.832 3.197 0.47 1.125 0.787 2.296 0.952 3.514 0.165 1.218 0.175 2.431 0.031 3.639-0.139 1.212-0.442 2.404-0.908 3.575-0.466 1.171-1.094 2.274-1.882 3.309v0c-0.792 1.04-1.688 1.938-2.689 2.693-1.001 0.756-2.067 1.362-3.199 1.818-1.13 0.466-2.304 0.781-3.522 0.946-1.218 0.165-2.436 0.176-3.653 0.033-1.213-0.148-2.403-0.454-3.569-0.916-1.166-0.462-2.266-1.088-3.301-1.875v0c-1.04-0.792-1.941-1.69-2.701-2.696-0.756-1.001-1.364-2.064-1.824-3.19-0.456-1.131-0.767-2.306-0.932-3.525-0.165-1.218-0.173-2.434-0.025-3.647 0.149-1.204 0.455-2.389 0.918-3.555 0.462-1.166 1.09-2.269 1.881-3.308v0c0.788-1.035 1.684-1.933 2.69-2.694 1.005-0.761 2.068-1.374 3.188-1.838 1.126-0.46 2.298-0.773 3.517-0.938 1.218-0.165 2.429-0.173 3.633-0.023 1.208 0.144 2.395 0.448 3.561 0.91 1.171 0.466 2.277 1.096 3.316 1.888zM44.468 57.309v0c-0.956-0.728-1.997-1.233-3.124-1.516-1.131-0.278-2.246-0.342-3.343-0.194-1.107 0.15-2.164 0.508-3.172 1.076-1.012 0.573-1.881 1.337-2.608 2.292v0c-0.736 0.966-1.243 2.01-1.522 3.132-0.279 1.122-0.344 2.236-0.194 3.343 0.141 1.108 0.497 2.168 1.07 3.18 0.573 1.012 1.337 1.881 2.292 2.608v0c0.956 0.728 1.992 1.229 3.108 1.504 1.117 0.275 2.23 0.335 3.341 0.18 1.107-0.15 2.166-0.506 3.179-1.07 1.007-0.567 1.879-1.334 2.615-2.3v0c0.728-0.956 1.233-1.997 1.516-3.124 0.274-1.126 0.336-2.242 0.186-3.349-0.154-1.101-0.51-2.156-1.068-3.165-0.562-1.003-1.321-1.869-2.276-2.597z" fill="#2a2c35" data-fill-palette-color="primary"></path><path d="M80.732 28.401v0c0.734 1.074 1.301 2.205 1.703 3.393 0.402 1.188 0.645 2.392 0.731 3.611 0.091 1.216 0.023 2.427-0.204 3.636-0.227 1.208-0.6 2.363-1.118 3.463-0.514 1.106-1.177 2.142-1.988 3.106-0.812 0.964-1.755 1.813-2.829 2.547v0c-1.079 0.737-2.213 1.307-3.401 1.709-1.188 0.402-2.391 0.641-3.609 0.717-1.219 0.086-2.433 0.015-3.641-0.213-1.208-0.227-2.367-0.601-3.477-1.12-1.105-0.523-2.137-1.188-3.098-1.994-0.961-0.806-1.808-1.746-2.542-2.821v0c-0.737-1.079-1.309-2.216-1.714-3.409-0.402-1.188-0.644-2.389-0.725-3.603-0.076-1.218-0.001-2.43 0.227-3.638 0.227-1.208 0.603-2.364 1.125-3.47 0.521-1.095 1.185-2.124 1.992-3.084 0.806-0.961 1.749-1.81 2.829-2.547v0c1.074-0.734 2.208-1.303 3.401-1.708 1.194-0.406 2.395-0.652 3.605-0.739 1.214-0.082 2.425-0.009 3.633 0.218 1.208 0.227 2.36 0.602 3.455 1.123 1.101 0.518 2.132 1.18 3.093 1.986 0.964 0.812 1.815 1.757 2.552 2.837zM76.22 31.483v0c-0.677-0.992-1.507-1.8-2.487-2.423-0.986-0.62-2.023-1.033-3.111-1.238-1.097-0.207-2.214-0.2-3.349 0.021-1.14 0.225-2.206 0.676-3.198 1.353v0c-1.003 0.685-1.813 1.516-2.432 2.493-0.618 0.977-1.031 2.014-1.237 3.112-0.216 1.096-0.212 2.214 0.013 3.354 0.225 1.14 0.676 2.206 1.353 3.198v0c0.677 0.992 1.503 1.794 2.476 2.407 0.973 0.613 2.011 1.021 3.114 1.224 1.097 0.207 2.215 0.202 3.354-0.013 1.135-0.221 2.204-0.674 3.206-1.359v0c0.992-0.677 1.8-1.507 2.424-2.487 0.615-0.982 1.025-2.022 1.232-3.12 0.201-1.094 0.196-2.207-0.016-3.34-0.217-1.129-0.664-2.19-1.342-3.182z" fill="#2a2c35" data-fill-palette-color="primary"></path><path d="M118.346 9.498l5.478 18.848-5.256 1.528-5.479-18.848c-0.107-0.37-0.278-0.693-0.51-0.971-0.239-0.276-0.511-0.498-0.816-0.665-0.313-0.172-0.648-0.278-1.005-0.32-0.357-0.041-0.721-0.008-1.09 0.1v0c-0.363 0.106-0.685 0.272-0.965 0.498-0.286 0.228-0.512 0.498-0.677 0.808-0.174 0.306-0.281 0.638-0.322 0.996-0.041 0.357-0.008 0.721 0.099 1.09v0l5.479 18.848-5.285 1.537-5.479-18.848c-0.107-0.37-0.274-0.694-0.501-0.974-0.226-0.28-0.495-0.502-0.805-0.668-0.306-0.174-0.638-0.281-0.996-0.322-0.357-0.041-0.721-0.008-1.09 0.099v0c-0.37 0.107-0.694 0.274-0.974 0.501-0.28 0.226-0.505 0.496-0.677 0.809-0.167 0.304-0.271 0.635-0.313 0.992-0.041 0.357-0.008 0.721 0.099 1.091v0l5.479 18.848-5.285 1.536-5.479-18.848c-0.317-1.09-0.411-2.175-0.283-3.255 0.133-1.089 0.455-2.095 0.968-3.018 0.504-0.927 1.178-1.735 2.022-2.422 0.848-0.696 1.817-1.202 2.906-1.519v0c0.981-0.285 1.975-0.384 2.982-0.297 1.013 0.086 1.979 0.354 2.898 0.806v0c0.527-0.872 1.193-1.615 1.996-2.228 0.797-0.612 1.685-1.06 2.666-1.346v0c1.096-0.319 2.185-0.411 3.268-0.276 1.081 0.128 2.086 0.448 3.015 0.958 0.921 0.506 1.73 1.183 2.425 2.032 0.687 0.844 1.19 1.81 1.507 2.9z" fill="#2a2c35" data-fill-palette-color="primary"></path><path d="M140.304 0l1.013 27.463-5.5 0.202-1.013-27.462z" fill="#2a2c35" data-fill-palette-color="primary"></path><path d="M173.314 26.406l-0.973 5.418-18.545-3.328 4.854-27.049 18.546 3.328-0.971 5.408-13.128-2.356-0.972 5.417 8.886 1.595-0.972 5.418-8.886-1.595-0.967 5.388z" fill="#2a2c35" data-fill-palette-color="primary"></path><path d="M210.091 38.207l-6.312 8.983-4.503-3.164 15.798-22.486 4.504 3.164-6.323 9 8.983 6.311 6.323-9 4.503 3.165-15.798 22.486-4.504-3.164 6.312-8.983z" fill="#2a2c35" data-fill-palette-color="primary"></path><path d="M260.236 65.353l-12.984 10.186c-1.196 0.938-2.496 1.591-3.902 1.96-1.402 0.374-2.799 0.475-4.191 0.302-1.402-0.174-2.738-0.61-4.011-1.307-1.277-0.693-2.385-1.637-3.323-2.833v0c-0.938-1.196-1.593-2.499-1.966-3.91-0.374-1.402-0.475-2.799-0.302-4.191 0.168-1.388 0.598-2.721 1.291-3.998 0.693-1.277 1.637-2.385 2.833-3.323v0l12.985-10.185 3.385 4.315-12.985 10.185c-0.59 0.463-1.058 1.011-1.404 1.645-0.342 0.639-0.558 1.31-0.647 2.014-0.084 0.699-0.032 1.4 0.157 2.103 0.189 0.703 0.517 1.353 0.984 1.948v0c0.463 0.59 1.013 1.061 1.652 1.411 0.642 0.356 1.313 0.577 2.011 0.662 0.704 0.08 1.405 0.028 2.103-0.157 0.698-0.185 1.342-0.509 1.933-0.972v0l12.984-10.185z" fill="#2a2c35" data-fill-palette-color="primary"></path><path d="M259.473 109.964v0c-1.055 0.418-2.129 0.609-3.222 0.571-1.084-0.034-2.11-0.262-3.077-0.685-0.971-0.414-1.845-1.007-2.621-1.777-0.768-0.766-1.361-1.677-1.78-2.731v0l-5.067-12.777 25.545-10.132 5.068 12.777c0.418 1.055 0.611 2.124 0.576 3.209-0.032 1.09-0.259 2.119-0.681 3.086-0.421 0.973-1.014 1.844-1.781 2.612-0.764 0.774-1.676 1.371-2.737 1.793v0c-0.475 0.188-0.985 0.316-1.529 0.381-0.551 0.069-1.105 0.074-1.664 0.018-0.562-0.048-1.097-0.165-1.605-0.349-0.515-0.181-0.976-0.427-1.384-0.736v0c-0.062 0.51-0.218 1.007-0.468 1.492-0.259 0.481-0.572 0.934-0.94 1.358-0.37 0.418-0.782 0.792-1.236 1.122-0.457 0.324-0.923 0.58-1.397 0.768zM255.94 93.634l-5.089 2.018 3.039 7.661c0.142 0.358 0.339 0.665 0.59 0.922 0.252 0.257 0.54 0.453 0.866 0.588 0.321 0.144 0.662 0.219 1.021 0.227 0.36 0.007 0.719-0.06 1.076-0.202v0c0.358-0.142 0.665-0.339 0.923-0.591 0.257-0.252 0.456-0.541 0.597-0.869 0.138-0.319 0.21-0.658 0.218-1.017 0.007-0.36-0.06-0.719-0.202-1.077v0zM266.173 89.575l-5.116 2.029 3.038 7.661c0.142 0.358 0.339 0.665 0.591 0.922 0.252 0.257 0.54 0.453 0.865 0.589 0.327 0.141 0.674 0.215 1.04 0.219 0.366 0.005 0.725-0.063 1.076-0.202v0c0.358-0.142 0.665-0.339 0.922-0.591 0.257-0.252 0.456-0.541 0.598-0.868 0.138-0.319 0.213-0.659 0.227-1.022 0.007-0.36-0.06-0.719-0.202-1.076v0z" fill="#2a2c35" data-fill-palette-color="primary"></path><path d="M34.514 184.84l-1.856-5.172-10.361 3.717 1.855 5.172c0.255 0.712 0.633 1.331 1.131 1.857 0.493 0.528 1.057 0.943 1.694 1.243 0.639 0.307 1.322 0.481 2.049 0.523 0.733 0.04 1.453-0.067 2.159-0.32v0c0.712-0.255 1.335-0.631 1.869-1.125 0.534-0.495 0.951-1.064 1.249-1.707 0.3-0.636 0.473-1.315 0.518-2.036 0.051-0.723-0.052-1.441-0.307-2.152zM17.144 185.234l-5.181 1.858-1.859-5.181 25.867-9.279 3.714 10.352c0.343 0.956 0.549 1.914 0.62 2.876 0.072 0.968 0.017 1.915-0.166 2.841-0.176 0.923-0.467 1.814-0.871 2.67-0.402 0.863-0.907 1.658-1.514 2.383-0.613 0.728-1.313 1.37-2.1 1.928-0.791 0.566-1.661 1.019-2.611 1.359v0c-0.887 0.318-1.792 0.516-2.716 0.594-0.922 0.084-1.835 0.052-2.741-0.095-0.91-0.139-1.791-0.394-2.643-0.765-0.854-0.377-1.649-0.854-2.384-1.429v0l-5.736 5.293-1.973-5.499 4.408-4.13z" fill="#2a2c35" data-fill-palette-color="primary"></path><path d="M53.036 229.868v0c-1.035 0.788-2.135 1.413-3.3 1.875-1.166 0.462-2.355 0.768-3.569 0.916-1.209 0.154-2.423 0.148-3.641-0.017-1.218-0.165-2.39-0.478-3.517-0.938-1.131-0.456-2.2-1.065-3.204-1.826-1.005-0.761-1.901-1.659-2.689-2.693v0c-0.792-1.04-1.419-2.143-1.882-3.309-0.462-1.166-0.763-2.355-0.902-3.567-0.148-1.213-0.14-2.429 0.025-3.647 0.165-1.218 0.478-2.395 0.94-3.53 0.466-1.13 1.076-2.196 1.832-3.197 0.756-1.001 1.651-1.895 2.685-2.683v0c1.04-0.792 2.146-1.421 3.317-1.888 1.166-0.462 2.353-0.766 3.561-0.91 1.212-0.139 2.427-0.126 3.645 0.039 1.218 0.165 2.392 0.48 3.523 0.946 1.121 0.464 2.182 1.074 3.182 1.83 1.001 0.756 1.897 1.654 2.689 2.693v0c0.788 1.035 1.415 2.138 1.882 3.309 0.466 1.171 0.774 2.359 0.924 3.563 0.144 1.208 0.134 2.421-0.031 3.639-0.165 1.218-0.48 2.388-0.944 3.509-0.46 1.126-1.068 2.19-1.824 3.19-0.761 1.005-1.662 1.903-2.702 2.696zM49.726 225.52v0c0.956-0.728 1.72-1.597 2.292-2.609 0.569-1.017 0.927-2.074 1.076-3.171 0.15-1.107 0.085-2.221-0.194-3.343-0.283-1.127-0.788-2.169-1.516-3.124v0c-0.736-0.966-1.607-1.733-2.615-2.3-1.007-0.567-2.065-0.926-3.171-1.076-1.105-0.159-2.222-0.097-3.349 0.186-1.127 0.283-2.169 0.788-3.124 1.516v0c-0.956 0.728-1.714 1.593-2.276 2.597-0.562 1.003-0.916 2.061-1.062 3.173-0.15 1.107-0.088 2.223 0.186 3.349 0.279 1.122 0.786 2.166 1.522 3.132v0c0.728 0.956 1.597 1.72 2.608 2.292 1.013 0.563 2.072 0.92 3.179 1.07 1.103 0.145 2.214 0.082 3.335-0.188 1.117-0.275 2.153-0.776 3.109-1.504z" fill="#2a2c35" data-fill-palette-color="primary"></path><path d="M84.46 252.975v0c-0.734 1.074-1.581 2.014-2.541 2.82-0.961 0.806-1.993 1.471-3.098 1.995-1.099 0.527-2.253 0.904-3.461 1.131-1.208 0.227-2.419 0.3-3.633 0.219-1.218-0.076-2.423-0.317-3.617-0.723-1.194-0.406-2.327-0.975-3.401-1.709v0c-1.079-0.737-2.022-1.586-2.828-2.547-0.806-0.961-1.466-1.994-1.981-3.1-0.523-1.105-0.898-2.261-1.126-3.47-0.227-1.208-0.301-2.424-0.221-3.646 0.086-1.219 0.329-2.423 0.731-3.611 0.402-1.188 0.969-2.319 1.703-3.393v0c0.737-1.079 1.588-2.025 2.553-2.837 0.961-0.806 1.991-1.468 3.092-1.986 1.106-0.514 2.264-0.885 3.472-1.112 1.208-0.227 2.422-0.298 3.641-0.213 1.21 0.087 2.409 0.332 3.597 0.733 1.188 0.402 2.322 0.971 3.402 1.709v0c1.074 0.734 2.017 1.583 2.828 2.547 0.812 0.964 1.478 1.994 2 3.09 0.518 1.101 0.89 2.255 1.118 3.463 0.227 1.208 0.298 2.417 0.21 3.628-0.082 1.214-0.324 2.415-0.725 3.603-0.406 1.194-0.977 2.33-1.715 3.409zM79.948 249.893v0c0.677-0.992 1.128-2.058 1.353-3.198 0.219-1.144 0.226-2.26 0.021-3.349-0.207-1.097-0.619-2.135-1.237-3.112-0.624-0.981-1.432-1.81-2.424-2.487v0c-1.003-0.685-2.072-1.138-3.206-1.358-1.135-0.221-2.251-0.228-3.349-0.022-1.099 0.197-2.139 0.608-3.119 1.232-0.981 0.624-1.81 1.432-2.488 2.424v0c-0.677 0.992-1.125 2.052-1.341 3.182-0.217 1.129-0.22 2.245-0.008 3.346 0.207 1.097 0.617 2.137 1.232 3.119 0.618 0.977 1.429 1.808 2.432 2.493v0c0.992 0.677 2.058 1.128 3.198 1.353 1.139 0.215 2.257 0.22 3.354 0.013 1.092-0.21 2.127-0.62 3.106-1.229 0.973-0.613 1.798-1.415 2.476-2.407z" fill="#2a2c35" data-fill-palette-color="primary"></path><path d="M123.541 259.463l-5.479 18.847-5.257-1.528 5.479-18.847c0.107-0.37 0.137-0.734 0.09-1.094-0.054-0.361-0.165-0.694-0.332-0.998-0.172-0.313-0.397-0.582-0.677-0.808-0.28-0.226-0.604-0.393-0.974-0.501v0c-0.363-0.106-0.724-0.138-1.081-0.097-0.364 0.039-0.699 0.146-1.005 0.32-0.311 0.165-0.579 0.388-0.805 0.667-0.226 0.28-0.393 0.604-0.501 0.974v0l-5.479 18.848-5.285-1.536 5.478-18.848c0.107-0.37 0.141-0.733 0.1-1.091-0.041-0.357-0.149-0.689-0.322-0.995-0.165-0.311-0.388-0.579-0.668-0.806-0.28-0.226-0.604-0.393-0.974-0.501v0c-0.37-0.107-0.733-0.141-1.09-0.099-0.357 0.041-0.692 0.148-1.005 0.319-0.304 0.167-0.57 0.391-0.796 0.671-0.226 0.28-0.393 0.604-0.501 0.974v0l-5.479 18.847-5.286-1.536 5.479-18.848c0.317-1.09 0.819-2.056 1.507-2.9 0.696-0.848 1.507-1.524 2.434-2.028 0.923-0.513 1.925-0.833 3.006-0.961 1.089-0.133 2.178-0.041 3.268 0.276v0c0.981 0.285 1.873 0.735 2.676 1.348 0.809 0.615 1.481 1.36 2.014 2.234v0c0.913-0.453 1.872-0.724 2.879-0.812 1-0.089 1.991 0.009 2.973 0.294v0c1.096 0.319 2.065 0.825 2.906 1.519 0.844 0.687 1.521 1.496 2.032 2.425 0.506 0.921 0.826 1.926 0.958 3.015 0.128 1.081 0.034 2.166-0.283 3.256z" fill="#2a2c35" data-fill-palette-color="primary"></path><path d="M141.57 252.537l-1.014 27.463-5.5-0.203 1.013-27.462z" fill="#2a2c35" data-fill-palette-color="primary"></path><path d="M175.016 269.91l0.972 5.418-18.546 3.328-4.854-27.049 18.546-3.328 0.97 5.408-13.128 2.356 0.973 5.417 8.885-1.594 0.973 5.417-8.886 1.595 0.967 5.388z" fill="#2a2c35" data-fill-palette-color="primary"></path><path d="M209.335 247.551l6.312 8.983-4.504 3.164-15.798-22.486 4.503-3.164 6.323 8.999 8.983-6.311-6.322-9 4.503-3.164 15.799 22.487-4.504 3.164-6.312-8.983z" fill="#2a2c35" data-fill-palette-color="primary"></path><path d="M233.234 200.298l12.984 10.186c1.196 0.938 2.14 2.045 2.833 3.323 0.697 1.272 1.128 2.605 1.291 3.998 0.165 1.403 0.06 2.805-0.314 4.206-0.369 1.406-1.022 2.706-1.96 3.902v0c-0.938 1.196-2.048 2.143-3.329 2.841-1.272 0.697-2.605 1.128-3.999 1.291-1.388 0.168-2.785 0.067-4.19-0.301-1.406-0.369-2.706-1.022-3.902-1.961v0l-12.985-10.185 3.385-4.315 12.985 10.185c0.59 0.463 1.234 0.787 1.932 0.972 0.702 0.18 1.405 0.23 2.109 0.149 0.699-0.084 1.367-0.302 2.006-0.653 0.638-0.351 1.191-0.824 1.657-1.42v0c0.463-0.59 0.789-1.237 0.978-1.94 0.193-0.709 0.248-1.412 0.163-2.111-0.09-0.703-0.307-1.371-0.653-2.005-0.346-0.634-0.814-1.182-1.404-1.646v0l-12.985-10.185z" fill="#2a2c35" data-fill-palette-color="primary"></path><path d="M263.34 178.403v0c1.055 0.418 1.967 1.016 2.737 1.792 0.766 0.768 1.357 1.637 1.771 2.608 0.423 0.967 0.653 1.997 0.691 3.091 0.034 1.084-0.158 2.154-0.576 3.208v0l-5.068 12.777-25.546-10.131 5.068-12.778c0.418-1.055 1.011-1.965 1.779-2.731 0.77-0.772 1.641-1.366 2.612-1.78 0.973-0.421 2.002-0.648 3.087-0.682 1.087-0.04 2.16 0.15 3.221 0.571v0c0.475 0.188 0.933 0.445 1.376 0.77 0.448 0.328 0.856 0.704 1.223 1.128 0.376 0.42 0.686 0.872 0.93 1.354 0.25 0.485 0.418 0.98 0.503 1.484v0c0.395-0.329 0.849-0.584 1.364-0.765 0.518-0.173 1.056-0.288 1.614-0.345 0.556-0.051 1.112-0.041 1.67 0.03 0.555 0.077 1.07 0.21 1.544 0.399zM254.719 192.715l5.089 2.019 3.038-7.661c0.142-0.358 0.209-0.717 0.202-1.077-0.007-0.36-0.083-0.7-0.227-1.021-0.135-0.325-0.331-0.613-0.588-0.865-0.257-0.252-0.564-0.449-0.922-0.591v0c-0.358-0.142-0.717-0.209-1.077-0.202-0.36 0.007-0.703 0.082-1.03 0.223-0.319 0.138-0.604 0.335-0.856 0.592-0.252 0.257-0.449 0.564-0.591 0.923v0zM244.486 188.657l5.116 2.029 3.039-7.661c0.142-0.358 0.209-0.717 0.202-1.076-0.007-0.36-0.083-0.7-0.227-1.021-0.141-0.327-0.344-0.618-0.607-0.873-0.263-0.254-0.571-0.451-0.922-0.591v0c-0.358-0.142-0.717-0.209-1.076-0.202-0.36 0.007-0.703 0.082-1.031 0.223-0.319 0.138-0.607 0.334-0.865 0.589-0.252 0.257-0.449 0.564-0.591 0.922v0z" fill="#2a2c35" data-fill-palette-color="primary"></path><path d="M4.21 143.417c0-5.88 4.766-10.646 10.647-10.646 5.88 0 10.646 4.766 10.646 10.646 0 5.88-4.766 10.646-10.646 10.646-5.88 0-10.646-4.766-10.647-10.646z" fill="#2a2c35" data-fill-palette-color="primary"></path><path d="M255.04 143.417c0-5.88 4.766-10.646 10.646-10.646 5.88 0 10.646 4.766 10.646 10.646 0 5.88-4.766 10.646-10.646 10.646-5.88 0-10.646-4.766-10.646-10.646z" fill="#2a2c35" data-fill-palette-color="primary"></path></g><g id="text-1"></g></svg></g></svg></g></svg></g></svg></g><defs></defs></svg><rect width="280" height="280" fill="none" stroke="none" visibility="hidden"></rect></g></svg></g></svg>